<?xml version="1.0" encoding="UTF-8" standalone="no"?>
<!-- Created with Inkscape (http://www.inkscape.org/) -->

<svg
   xmlns:dc="http://purl.org/dc/elements/1.1/"
   xmlns:cc="http://creativecommons.org/ns#"
   xmlns:rdf="http://www.w3.org/1999/02/22-rdf-syntax-ns#"
   xmlns:svg="http://www.w3.org/2000/svg"
   xmlns="http://www.w3.org/2000/svg"
   xmlns:sodipodi="http://sodipodi.sourceforge.net/DTD/sodipodi-0.dtd"
   xmlns:inkscape="http://www.inkscape.org/namespaces/inkscape"
   width="391.35931mm"
   height="272.00388mm"
   viewBox="0 0 1386.7062 963.79326"
   id="svg4228"
   version="1.1"
   inkscape:version="0.91 r13725"
   sodipodi:docname="programmer.svg"
   inkscape:export-filename="E:\0. Vexagrafi\paid vector\222-1054 php programming edited.png"
   inkscape:export-xdpi="91"
   inkscape:export-ydpi="91">
  <defs
     id="defs4230" />
  <sodipodi:namedview
     id="base"
     pagecolor="#ffffff"
     bordercolor="#666666"
     borderopacity="1.0"
     inkscape:pageopacity="0.0"
     inkscape:pageshadow="2"
     inkscape:zoom="0.49497475"
     inkscape:cx="621.1943"
     inkscape:cy="459.72927"
     inkscape:document-units="px"
     inkscape:current-layer="layer1"
     showgrid="false"
     fit-margin-top="0"
     fit-margin-left="0"
     fit-margin-right="0"
     fit-margin-bottom="0"
     inkscape:window-width="1366"
     inkscape:window-height="705"
     inkscape:window-x="-8"
     inkscape:window-y="-8"
     inkscape:window-maximized="1" />
  <metadata
     id="metadata4233">
    <rdf:RDF>
      <cc:Work
         rdf:about="">
        <dc:format>image/svg+xml</dc:format>
        <dc:type
           rdf:resource="http://purl.org/dc/dcmitype/StillImage" />
        <dc:title></dc:title>
      </cc:Work>
    </rdf:RDF>
  </metadata>
  <g
     inkscape:label="Layer 1"
     inkscape:groupmode="layer"
     id="layer1"
     transform="translate(736.21027,-41.894138)">
    <path
       style="fill:#1976d2;fill-opacity:1;fill-rule:evenodd;stroke:none;stroke-width:1px;stroke-linecap:butt;stroke-linejoin:miter;stroke-opacity:1"
       d="m -284.4991,667.92754 c 3.5214,-2.37317 5.3245,-0.7369 7.513,0 l -5.6568,18.64994 c 0,0 -4.773,-7.24784 -4.4194,-9.01561 0.3535,-1.76776 2.5632,-9.63433 2.5632,-9.63433 z"
       id="path4343"
       inkscape:connector-curvature="0"
       sodipodi:nodetypes="ccccc" />
    <path
       inkscape:connector-curvature="0"
       id="path4345"
       d="m -206.3826,667.92754 c -4.4529,-1.94857 -5.774,-0.76533 -7.513,0 l 5.6568,18.64994 c 0,0 4.773,-7.24784 4.4194,-9.01561 -0.3535,-1.76776 -2.5632,-9.63433 -2.5632,-9.63433 z"
       style="fill:#1976d2;fill-opacity:1;fill-rule:evenodd;stroke:none;stroke-width:1px;stroke-linecap:butt;stroke-linejoin:miter;stroke-opacity:1"
       sodipodi:nodetypes="ccccc" />
    <path
       sodipodi:nodetypes="cccccccc"
       inkscape:connector-curvature="0"
       id="path4315"
       d="m -279.945,651.15151 -3.1072,56.92857 45.5357,64.39286 49.6429,-68.21429 -18.4643,0.64286 -5.8929,-54.35714 -31.7142,27.64285 z"
       style="fill:#fbd9a5;fill-opacity:1;fill-rule:evenodd;stroke:none;stroke-width:1px;stroke-linecap:butt;stroke-linejoin:miter;stroke-opacity:1" />
    <path
       style="fill:#e3bc81;fill-opacity:1;fill-rule:evenodd;stroke:none;stroke-width:1px;stroke-linecap:butt;stroke-linejoin:miter;stroke-opacity:1"
       d="m -211.4903,654.5809 0.3536,10.96016 c -3.6867,8.67081 -8.8082,16.19368 -14.8493,22.98097 -4.7669,5.06385 -12.2842,10.54056 -19.6222,10.6066 -7.574,-0.10401 -13.2042,-6.28818 -20.1526,-10.42982 -6.5251,-7.4619 -11.1443,-15.87672 -14.8492,-24.74874 l 1.4142,-10.42983 c 0,0 10.6066,11.31371 10.6066,12.37437 0,1.06066 4.4194,5.48008 7.0711,8.66206 2.6516,3.18198 -1.2374,4.41942 6.1872,5.65685 7.4246,1.23744 10.6066,2.2981 13.6118,1.76777 3.0052,-0.53033 0.8839,1.59099 3.8891,-1.59099 3.0052,-3.18198 0.8839,-0.35355 3.3587,-3.53553 2.4749,-3.18198 1.0607,-2.65165 4.5962,-4.94975 3.5356,-2.2981 5.3033,-3.53554 7.4246,-5.65686 2.1214,-2.12132 0.7072,0.17678 3.3588,-3.35875 2.6517,-3.53554 0.8839,-2.2981 2.6517,-3.53554 1.7677,-1.23743 3.0052,-2.29809 3.0052,-2.29809 z"
       id="path4347"
       inkscape:connector-curvature="0"
       sodipodi:nodetypes="cccccccscsssccccccc" />
    <path
       sodipodi:nodetypes="cccscccccccccccccccc"
       inkscape:connector-curvature="0"
       id="path4293"
       d="m -203.2308,562.83008 1.5332,30.83683 c 1.4257,-4.45746 6.0178,-4.11615 8.0777,-2.27569 0.7295,1.97844 0.3751,6.96388 -0.2775,13.1023 -0.5216,4.90671 -0.8176,10.32753 -2.5476,14.05085 -2.2535,5.39516 -5.8621,7.6387 -8.75,10.17856 -0.471,12.22626 -3.2356,17.33226 -4.4536,25.88569 -3.582,9.73878 -11.4464,18.0068 -21.0822,27.86432 -3.2302,2.47512 -9.66851,4.71301 -13.5714,5 -6.3048,-0.34082 -11.8072,-1.96557 -16.4286,-5 -9.0302,-7.4945 -14.133,-16.17896 -20.1785,-25 -3.0093,-9.65825 -7.5266,-16.2344 -9.1072,-26.42857 -5.5102,-1.96655 -7.8509,-6.51013 -10.8035,-11.96429 -3.0948,-7.75598 -1.9632,-14.42468 -1.6072,-22.41071 1.9048,-2.73811 3.4822,-3.60119 5.625,0.0893 l -2.1428,-10.35716 c -2.2077,-11.37362 -2.8357,-21.9847 8.5714,-26.78571 l 30.3571,-13.03572 45.3572,-1.60714 c 5.2424,4.85011 12.0397,8.50425 11.4285,17.85714 z"
       style="fill:#ffe0b2;fill-opacity:1;fill-rule:evenodd;stroke:none;stroke-width:1px;stroke-linecap:butt;stroke-linejoin:miter;stroke-opacity:1" />
    <path
       sodipodi:nodetypes="cccccccccscccccccccccc"
       inkscape:connector-curvature="0"
       id="path4299"
       d="m -201.6557,588.99675 -6.3135,19.50857 c -3.9082,-3.34863 -24.2891,-0.24167 -35.6079,1.95717 l -3.6618,2.27284 -6.4397,0.12627 -2.7779,-2.65165 c -10.323,-0.82317 -21.0779,-1.15282 -32.5774,-0.63134 l -1.7678,1.38896 -4.7982,-16.66752 c 0,0 -1.8941,1.13642 -1.7678,1.6415 0.1263,0.50507 6.9448,22.8547 6.9448,22.8547 0.3003,1.04585 1.5446,1.3106 1.9667,2.24485 0.4373,4.11446 3.1209,6.90634 6.4933,8.74056 8.0812,1.48269 16.1625,1.205 24.2437,0 3.042,-3.81101 4.2613,-7.98657 5.6821,-12.12183 l 5.0508,0 c 1.458,3.77457 3.1726,7.42085 5.3033,10.85914 9.891,2.24407 19.7821,1.96308 29.6732,-1.51523 2.7971,-3.48044 3.0475,-6.71671 3.4724,-9.72272 l 2.9673,-2.77792 5.3033,-22.8547 z"
       style="fill:#424242;fill-rule:evenodd;stroke:none;stroke-width:1px;stroke-linecap:butt;stroke-linejoin:miter;stroke-opacity:1" />
    <path
       sodipodi:nodetypes="cccccc"
       inkscape:connector-curvature="0"
       id="path4301"
       d="m -256.5343,614.88365 -2.0536,-1.25 c -9.1585,-2.11363 -19.0557,-1.30703 -28.6671,-0.92984 -0.5269,5.42602 0.9638,10.50021 5.8992,14.50127 5.1669,1.06139 12.3786,1.49011 21.7858,-0.44643 3.3418,-3.23022 3.4568,-7.46884 3.0357,-11.875 z"
       style="fill:#ffffff;fill-rule:evenodd;stroke:none;stroke-width:1px;stroke-linecap:butt;stroke-linejoin:miter;stroke-opacity:1" />
    <path
       sodipodi:nodetypes="cccccc"
       inkscape:connector-curvature="0"
       id="path4303"
       d="m -243.7306,614.72678 1.507,-1.60265 c 9.1585,-2.11363 28.1299,-4.24186 31.049,-2.22317 -0.053,5.88955 0.2327,10.72637 -3.6308,13.86992 -5.1669,1.06139 -15.0934,3.13161 -24.5005,1.19507 -2.7105,-3.04081 -4.8458,-6.83301 -4.4247,-11.23917 z"
       style="fill:#ffffff;fill-rule:evenodd;stroke:none;stroke-width:1px;stroke-linecap:butt;stroke-linejoin:miter;stroke-opacity:1" />
    <path
       sodipodi:nodetypes="ccccccccc"
       inkscape:connector-curvature="0"
       id="path4305"
       d="m -243.4093,608.81222 c 7.9614,-5.80519 22.2379,-11.46779 24.1071,-11.16441 1.0995,-0.12672 5.9243,0.33063 5.8036,0.38234 l 2.5893,0.61174 c 0.4,0.61457 0.3548,1.22938 -0.1786,1.64408 -0.3967,0.49412 -1.532,0.69423 -2.5893,0.95586 l -3.0357,-0.38234 c -4.1629,0.59826 -10.3898,2.85296 -14.1964,5.96455 z"
       style="fill:#424242;fill-rule:evenodd;stroke:none;stroke-width:1px;stroke-linecap:butt;stroke-linejoin:miter;stroke-opacity:1" />
    <path
       style="fill:#424242;fill-rule:evenodd;stroke:none;stroke-width:1px;stroke-linecap:butt;stroke-linejoin:miter;stroke-opacity:1"
       d="m -258.2404,608.50844 c -8.5809,-4.85539 -23.431,-9.07875 -25.2571,-8.64501 -1.1086,-0.0331 -5.859,0.77885 -5.7329,0.81818 l -2.5079,0.78167 c -0.3287,0.61191 -0.214,1.18896 0.3638,1.5386 0.4507,0.4354 1.6033,0.53498 2.6852,0.6988 l 2.9782,-0.6002 c 4.211,0.23713 10.6637,1.87605 14.8046,4.51483 z"
       id="path4307"
       inkscape:connector-curvature="0"
       sodipodi:nodetypes="ccccccccc" />
    <path
       sodipodi:nodetypes="ccccccccccccccccccccccc"
       inkscape:connector-curvature="0"
       id="path4309"
       d="m -198.7665,589.79437 1.7857,-11.78572 c 2.2723,-9.30422 3.7101,-18.23818 0.8929,-24.46428 -0.9379,-8.54701 -0.2677,-17.3864 -11.25,-24.10715 -12.9465,-13.60753 -30.2225,-18.86517 -49.8214,-19.64286 l 3.2143,4.46429 c -12.0324,-3.78961 -28.082,4.23487 -43.3929,13.92857 l 6.9643,-2.14286 c -11.7623,6.76391 -15.0078,17.67504 -21.6072,26.78572 l 2.1429,-0.53571 c 0.1545,7.85336 1.2185,15.10034 3.3929,21.60714 l 1.0714,-2.5 c 0.8376,7.67857 5.0371,13.0843 6.7857,23.03571 l 1.7857,2.85715 2.5,-5.89286 c -0.6547,-6.79959 -1.3095,-8.94848 -1.9643,-13.21429 1.9496,-5.69101 4.2426,-9.83701 7.1429,-11.25 16.6173,4.30064 34.0984,3.13055 52.1428,-1.60714 6.4881,-5.2881 14.7262,-6.03284 21.2143,-7.03571 4.4176,4.35018 6.0957,6.7949 7.5783,11.59663 1.5811,5.12071 1.1213,10.3631 2.9932,15.43908 l 4.2857,8.57143 z"
       style="fill:#393636;fill-opacity:1;fill-rule:evenodd;stroke:none;stroke-width:1px;stroke-linecap:butt;stroke-linejoin:miter;stroke-opacity:1" />
    <path
       sodipodi:nodetypes="cccsccc"
       inkscape:connector-curvature="0"
       id="path4311"
       d="m -203.4235,618.48058 c 2.6814,-4.62983 4.3006,-7.77833 5.4927,-7.57615 1.1533,0.19561 2.7783,-15.1528 2.0203,-14.14213 0,-2.75579 -1.5354,-3.55129 -1.8309,-1.89404 -0.889,4.98604 -3.3461,7.70241 -3.3461,7.70241 1.0236,6.04468 -1.132,10.95393 -2.2729,16.22558 z"
       style="fill:#fbd9a5;fill-opacity:1;fill-rule:evenodd;stroke:none;stroke-width:1px;stroke-linecap:butt;stroke-linejoin:miter;stroke-opacity:1" />
    <path
       sodipodi:nodetypes="cscc"
       inkscape:connector-curvature="0"
       id="path4313"
       d="m -298.4093,600.24079 c -1.9046,-0.13604 -1.0561,16.77406 0.9821,17.58929 0.8813,0.35248 4.7322,5 4.7322,5 -1.2774,-6.90238 -3.5103,-14.76024 -5.7143,-22.58929 z"
       style="fill:#fbd9a5;fill-opacity:1;fill-rule:evenodd;stroke:none;stroke-width:1px;stroke-linecap:butt;stroke-linejoin:miter;stroke-opacity:1" />
    <path
       sodipodi:nodetypes="ccccccccccccccc"
       inkscape:connector-curvature="0"
       id="path4321"
       d="m -237.5162,940.02471 -4.0406,-194.95939 18.5046,-16.8781 2.1429,-11.25 18.2143,-21.60714 3.3928,-17.14286 16.3343,9.80448 23.486,7.07107 15.40481,9.59644 8.0813,1.01016 19.9079,10.01785 c 22.7966,17.56183 22.4758,104.05074 42.5941,149.40955 -1.3317,11.62539 -3.8655,23.25078 -6.5227,34.87614 -11.2636,16.6973 -28.7119,29.2715 -43.5714,43.5714 z"
       style="fill:#90a4ae;fill-opacity:1;fill-rule:evenodd;stroke:none;stroke-width:1px;stroke-linecap:butt;stroke-linejoin:miter;stroke-opacity:1" />
    <path
       style="fill:#90a4ae;fill-opacity:1;fill-rule:evenodd;stroke:none;stroke-width:1px;stroke-linecap:butt;stroke-linejoin:miter;stroke-opacity:1"
       d="m -231.3792,939.01461 -10.2278,-193.69675 -16.6486,-11.7735 -0.1786,-6.96428 -22.6786,-23.21429 -8.6834,-26.06245 -12.2937,10.68836 c -5.5152,0.96895 -12.9273,3.07599 -23.486,7.07107 l -15.026,9.84898 -8.7279,-1.02809 -19.6401,11.80356 c -27.6181,31.84754 -22.4758,104.05074 -42.5941,149.40955 1.3316,11.62539 3.8655,23.25078 6.5227,34.87614 11.2635,16.6973 28.7119,29.2715 43.5714,43.5714 z"
       id="path4323"
       inkscape:connector-curvature="0"
       sodipodi:nodetypes="ccccccccccccccc" />
    <path
       sodipodi:nodetypes="cccccccccc"
       inkscape:connector-curvature="0"
       id="path4317"
       d="m -206.445,667.83008 c -1.4269,19.83007 -7.4465,36.50259 -19.6429,48.92857 l 0,11.78572 -16.4286,17.14285 19.9313,-15.27792 c 2.2244,-3.96484 1.7673,-4.41887 2.9259,-12.57922 3.6679,-4.25696 6.925,-3.84345 11.8903,-2.91098 l 12.0023,22.82124 c 0.9081,-16.5624 2.5067,-40.55491 -3.8926,-59.55312 z"
       style="fill:#607d8b;fill-opacity:1;fill-rule:evenodd;stroke:none;stroke-width:1px;stroke-linecap:butt;stroke-linejoin:miter;stroke-opacity:1" />
    <path
       style="opacity:1;fill:#607d8b;fill-opacity:1;fill-rule:evenodd;stroke:none;stroke-width:1.88699996;stroke-miterlimit:4;stroke-dasharray:none;stroke-dashoffset:0;stroke-opacity:0.99479167"
       d="m -487.98613,918.54451 -110.95267,87.14259 1120.5284,0 -104.39416,-87.14259 -905.18157,0 z"
       id="path4325"
       inkscape:connector-curvature="0" />
    <path
       style="fill:#607d8b;fill-opacity:1;fill-rule:evenodd;stroke:none;stroke-width:1px;stroke-linecap:butt;stroke-linejoin:miter;stroke-opacity:1"
       d="m -369.2343,715.93592 c -0.8877,1.64096 -1.3659,3.28191 -1.5468,4.92287 11.3076,11.00015 19.218,24.16219 23.1932,39.82843 l 4,31 2.5,0 -4.5,-33 c -2.2833,-14.82963 -11.7527,-28.91586 -23.6464,-42.7513 z"
       id="path4355"
       inkscape:connector-curvature="0"
       sodipodi:nodetypes="ccccccc" />
    <path
       sodipodi:nodetypes="ccccccc"
       inkscape:connector-curvature="0"
       id="path4357"
       d="m -116.00699,715.93592 c 0.8877,1.64096 2.6033,2.04447 2.7842,3.68543 -11.3076,11.00015 -22.9303,26.28351 -26.9055,41.94975 l -1.5251,30.11612 -4.091,0.70711 3.6161,-33.35356 c 2.2833,-14.82963 14.2276,-29.26941 26.1213,-43.10485 z"
       style="fill:#607d8b;fill-opacity:1;fill-rule:evenodd;stroke:none;stroke-width:1px;stroke-linecap:butt;stroke-linejoin:miter;stroke-opacity:1" />
    <path
       style="fill:#607d8b;fill-opacity:1;fill-rule:evenodd;stroke:none;stroke-width:1px;stroke-linecap:butt;stroke-linejoin:miter;stroke-opacity:1"
       d="m -241.3119,744.64862 2.3866,47.64133 -3.8891,0.35355 -0.7955,-47.64132 z"
       id="path5762"
       inkscape:connector-curvature="0"
       sodipodi:nodetypes="ccccc" />
    <path
       style="opacity:1;fill:#e3dbdb;fill-opacity:1;fill-rule:evenodd;stroke:none;stroke-width:1.88699996;stroke-miterlimit:4;stroke-dasharray:none;stroke-dashoffset:0;stroke-opacity:0.99479167"
       d="m -386.83424,788.54437 276.49266,0 c 4.53297,0 8.18225,3.64928 8.18225,8.18225 l 0,150.42738 c 0,4.53296 -3.64928,8.18224 -8.18225,8.18224 l -276.49266,0 c -4.53296,0 -8.18224,-3.64928 -8.18224,-8.18224 l 0,-150.42738 c 0,-4.53297 3.64928,-8.18225 8.18224,-8.18225 z"
       id="rect4327"
       inkscape:connector-curvature="0" />
    <path
       inkscape:connector-curvature="0"
       id="path4329"
       d="m -395.0173,960.73321 0,5.2001 c 0,3.425 4.1428,6.1833 9.2871,6.1833 l 274.28521,0 c 5.1442,0 9.2851,-2.7583 9.2851,-6.1833 l 0,-5.2001 -292.85741,0 z"
       style="opacity:1;fill:#e3dbdb;fill-opacity:1;fill-rule:evenodd;stroke:none;stroke-width:1.88699996;stroke-miterlimit:4;stroke-dasharray:none;stroke-dashoffset:0;stroke-opacity:0.99479167" />
    <path
       style="fill:#607d8b;fill-opacity:1;fill-rule:evenodd;stroke:none;stroke-width:1px;stroke-linecap:butt;stroke-linejoin:miter;stroke-opacity:1"
       d="m -284.4366,667.83008 c 1.4268,19.83007 16.3863,41.25031 28.5827,53.67629 l -0.6061,10.82607 14.6608,13.60732 -19.6787,-11.74239 c -2.2244,-3.96484 -1.6663,-7.6261 -1.8147,-10.35688 -3.6679,-4.25696 -8.4403,-5.56071 -13.4055,-4.62824 -4.7921,9.36522 -10.4354,17.27039 -13.9974,24.23545 -0.9081,-16.5624 -6.9262,-46.26227 -0.5268,-65.26048 z"
       id="path4319"
       inkscape:connector-curvature="0"
       sodipodi:nodetypes="cccccccccc" />
    <path
       style="fill:#303030;fill-opacity:1;fill-rule:evenodd;stroke:none;stroke-width:1px;stroke-linecap:butt;stroke-linejoin:miter;stroke-opacity:1"
       d="m -215.7329,558.06083 c 2.3496,-2.62494 12.202,21.05253 9.2326,21.81983 1.008,-10.92572 -4.5816,-28.75277 -10.9272,-29.38354 -25.4502,-10.65183 -53.8838,-1.99591 -81.6672,6.01777 2.106,3.24681 5.7703,1.06308 9.2871,1.95863 l -11.4853,13.90622 11.6673,-5.83363 c 16.2583,5.0858 34.3046,3.91345 53.3866,-0.88389 4.6506,-2.89793 10.2571,-5.63652 20.5061,-7.60139 z"
       id="path4351"
       inkscape:connector-curvature="0"
       sodipodi:nodetypes="ccccccccc" />
    <g
       id="g5943"
       transform="translate(-198.07143,4.527305)">
      <path
         d="m -70.825101,853.66927 0,7.8719 -10.864517,5.96356 10.864517,5.96355 0,7.82853 -19.235182,-10.51755 0,-6.61413 19.235182,-10.49586 z"
         style="font-style:normal;font-variant:normal;font-weight:normal;font-stretch:normal;font-size:medium;line-height:125%;font-family:'Bauhaus 93';-inkscape-font-specification:'Bauhaus 93, ';letter-spacing:0px;word-spacing:0px;fill:#808080;fill-opacity:1;stroke:none;stroke-width:1px;stroke-linecap:butt;stroke-linejoin:miter;stroke-opacity:1"
         id="path5932"
         inkscape:connector-curvature="0" />
      <path
         sodipodi:nodetypes="ccccc"
         d="m -42.708091,849.80424 -8.088752,35.21752 -6.62342,0 8.067066,-35.21752 z"
         style="font-style:normal;font-variant:normal;font-weight:normal;font-stretch:normal;font-size:medium;line-height:125%;font-family:'Bauhaus 93';-inkscape-font-specification:'Bauhaus 93, ';letter-spacing:0px;word-spacing:0px;fill:#808080;fill-opacity:1;stroke:none;stroke-width:1px;stroke-linecap:butt;stroke-linejoin:miter;stroke-opacity:1"
         id="path5934"
         inkscape:connector-curvature="0" />
      <path
         d="m -30.207854,881.29681 0,-7.8719 10.864517,-5.96356 -10.842832,-5.96355 0,-7.82853 19.213497,10.51754 0,6.61414 -19.235182,10.49586 z"
         style="font-style:normal;font-variant:normal;font-weight:normal;font-stretch:normal;font-size:medium;line-height:125%;font-family:'Bauhaus 93';-inkscape-font-specification:'Bauhaus 93, ';letter-spacing:0px;word-spacing:0px;fill:#808080;fill-opacity:1;stroke:none;stroke-width:1px;stroke-linecap:butt;stroke-linejoin:miter;stroke-opacity:1"
         id="path5936"
         inkscape:connector-curvature="0" />
    </g>
  </g>
</svg>
